<?xml version="1.0" encoding="UTF-8"?>
<svg id="fill" xmlns="http://www.w3.org/2000/svg" viewBox="0 0 199.598 48.675">
  <path d="M186.977,5.126c-.069-.303-.35-.525-.664-.524l-4.169.009c-.067-.021-.136-.037-.21-.037l-61.711.128c-.293,0-.54.193-.605.469l-1.961,8.439c-.095.407.238.809.67.809l13.498-.028c.431,0,.764.401.67.809l-6.511,28.02c-.095.407.238.81.67.809l13.563-.028c.293,0,.54-.193.605-.469l6.67-28.703c.064-.277.312-.469.605-.469l15.778-.033-19.879,28.696c-.291.42.045,1.008.574,1.007l13.601-.028c.222,0,.423-.112.532-.296l3.513-5.911c.109-.184.31-.296.532-.296l15.985-.033c.336,0,.629.25.674.578l.744,5.334c.046.328.339.579.674.578l14.257-.029c.402,0,.689-.357.6-.744l-8.705-38.053ZM177.5,28.96l-8.707.018c-.512,0-.85-.553-.594-.976l7.031-11.629c.307-.508,1.117-.318,1.204.283l1.676,11.611c.054.371-.229.693-.609.693Z" style="stroke-width: 0px;"/>
  <path d="M113.449,4.602l-15.428.032c-.207,0-.396.098-.51.262l-4.189,6.047c-.128-.156-.253-.312-.39-.464-1.637-1.818-3.917-3.219-6.84-4.203s-6.939-1.491-12.049-1.522l-25.343-.151c-.341-.002-.621.189-.685.469l-8.775,38.009c-.096.416.313.832.819.835l24.908.149c3.107.019,6.656-.318,10.647-1.01,2.919-.502,5.777-1.527,8.579-3.077,1.339-.741,2.574-1.572,3.709-2.486l17.935-.027c.336,0,.629.25.674.578l.744,5.334c.046.328.339.579.674.578l14.223-.029c.412,0,.717-.384.625-.786l-8.701-38.036c-.067-.293-.328-.5-.628-.499ZM76.193,29.306c-1.64,1.692-4.612,3.709-9.456,3.708h-10.691c-.566,0-.993-.531-.867-1.079l3.671-15.945c.046-.198.231-.338.448-.338h13.093c2.041,0,6.802.596,6.927,6.115.06,2.64-1.108,5.458-3.125,7.539ZM104.606,28.96l-8.707.018c-.512,0-.85-.553-.594-.976l7.031-11.629c.307-.508,1.117-.318,1.204.283l1.676,11.611c.054.371-.229.693-.609.693Z" style="stroke-width: 0px;"/>
  <path d="M34.96,37.647H5.863c-.178,0-.333.123-.373.297l-1.275,5.522c-.055.24.127.469.373.469h29.096c.178,0,.333-.123.373-.297l1.275-5.522c.055-.24-.127-.469-.373-.469Z" style="fill: #010100; stroke-width: 0px;"/>
  <path d="M37.504,26.63H8.408c-.178,0-.333.123-.373.297l-1.275,5.522c-.055.24.127.469.373.469h29.096c.178,0,.333-.123.373-.297l1.275-5.522c.055-.24-.127-.469-.373-.469Z" style="fill: #010100; stroke-width: 0px;"/>
  <path d="M40.047,15.613H10.95c-.178,0-.333.123-.373.297l-1.275,5.522c-.055.24.127.469.373.469h29.096c.178,0,.333-.123.373-.297l1.275-5.522c.055-.24-.127-.469-.373-.469Z" style="fill: #010100; stroke-width: 0px;"/>
  <path d="M42.588,4.603H13.492c-.178,0-.333.123-.373.297l-1.275,5.522c-.055.24.127.469.373.469h29.096c.178,0,.333-.123.373-.297l1.275-5.522c.055-.24-.127-.469-.373-.469Z" style="fill: #010100; stroke-width: 0px;"/>
</svg>