<?xml version="1.0" encoding="UTF-8"?>
<svg xmlns="http://www.w3.org/2000/svg" viewBox="0 0 199.598 48.675">
  <defs>
    <style>
      .cls-1 {
        fill: none;
        stroke: #b2b2b2;
        stroke-miterlimit: 10;
        stroke-width: .25px;
      }

      .cls-2 {
        fill: #e61b18;
      }

      .cls-2, .cls-3, .cls-4 {
        stroke-width: 0px;
      }

      .cls-4 {
        fill: #010100;
      }
    </style>
  </defs>
  <g id="outline">
    <path class="cls-1" d="M198.646,42.501h0s-8.705-38.054-8.705-38.054c-.383-1.672-1.911-2.886-3.635-2.886l-3.83.014c-.182-.027-.365-.042-.549-.042l-61.712.128c-1.484.003-2.783.878-3.353,2.192-.557-1.375-1.889-2.292-3.42-2.292l-15.429.032c-1.198.002-2.32.589-3.003,1.571l-2.181,3.149c-1.625-1.196-3.562-2.177-5.767-2.92-3.261-1.098-7.514-1.647-13.002-1.681l-25.367-.152c-1.429,0-2.673.772-3.301,1.95-.092-.175-.191-.347-.316-.505-.607-.763-1.515-1.201-2.489-1.201H13.492c-1.487,0-2.762,1.013-3.099,2.465l-1.274,5.522c-.22.949.002,1.931.608,2.694.13.164.28.305.436.437-1.134.287-2.039,1.17-2.311,2.356l-1.275,5.522c-.22.95.003,1.932.609,2.695.132.166.284.309.441.443-1.134.285-2.042,1.169-2.318,2.358l-1.274,5.522c-.22.949.003,1.931.609,2.695.131.165.283.308.44.441-1.138.285-2.047,1.17-2.319,2.358l-1.275,5.522c-.22.95.003,1.932.609,2.695.607.763,1.515,1.201,2.489,1.201h29.096c1.283,0,2.402-.754,2.902-1.889-.006-.013-.009-.027-.015-.039.021-.006.032,0,.015.039.112.22.239.435.397.634.728.919,1.871,1.472,3.058,1.479l25.172.15c3.21,0,6.883-.355,10.917-1.055,3.241-.557,6.449-1.706,9.535-3.413,1.14-.63,2.241-1.339,3.277-2.107l14.842-.022.459,3.287c.254,1.824,1.841,3.2,3.693,3.2l14.223-.029c.783-.002,1.537-.252,2.163-.712.658.529,1.471.817,2.329.817l13.57-.028c.778-.002,1.525-.245,2.145-.69.636.466,1.405.719,2.208.719l13.601-.028c1.285-.003,2.488-.687,3.141-1.784l2.807-4.723,12.557-.025.459,3.285c.254,1.824,1.841,3.2,3.692,3.2l14.258-.029c1.122-.002,2.165-.504,2.86-1.378.692-.87.946-1.995.697-3.085Z"/>
  </g>
  <g id="fill">
    <path class="cls-3" d="M186.977,5.126c-.069-.303-.35-.525-.664-.524l-4.169.009c-.067-.021-.136-.037-.21-.037l-61.711.128c-.293,0-.54.193-.605.469l-1.961,8.439c-.095.407.238.809.67.809l13.498-.028c.431,0,.764.401.67.809l-6.511,28.02c-.095.407.238.81.67.809l13.563-.028c.293,0,.54-.193.605-.469l6.67-28.703c.064-.277.312-.469.605-.469l15.778-.033-19.879,28.696c-.291.42.045,1.008.574,1.007l13.601-.028c.222,0,.423-.112.532-.296l3.513-5.911c.109-.184.31-.296.532-.296l15.985-.033c.336,0,.629.25.674.578l.744,5.334c.046.328.339.579.674.578l14.257-.029c.402,0,.689-.357.6-.744l-8.705-38.053ZM177.5,28.96l-8.707.018c-.512,0-.85-.553-.594-.976l7.031-11.629c.307-.508,1.117-.318,1.204.283l1.676,11.611c.054.371-.229.693-.609.693Z"/>
    <path class="cls-3" d="M113.449,4.602l-15.428.032c-.207,0-.396.098-.51.262l-4.189,6.047c-.128-.156-.253-.312-.39-.464-1.637-1.818-3.917-3.219-6.84-4.203s-6.939-1.491-12.049-1.522l-25.343-.151c-.341-.002-.621.189-.685.469l-8.775,38.009c-.096.416.313.832.819.835l24.908.149c3.107.019,6.656-.318,10.647-1.01,2.919-.502,5.777-1.527,8.579-3.077,1.339-.741,2.574-1.572,3.709-2.486l17.935-.027c.336,0,.629.25.674.578l.744,5.334c.046.328.339.579.674.578l14.223-.029c.412,0,.717-.384.625-.786l-8.701-38.036c-.067-.293-.328-.5-.628-.499ZM76.193,29.306c-1.64,1.692-4.612,3.709-9.456,3.708h-10.691c-.566,0-.993-.531-.867-1.079l3.671-15.945c.046-.198.231-.338.448-.338h13.093c2.041,0,6.802.596,6.927,6.115.06,2.64-1.108,5.458-3.125,7.539ZM104.606,28.96l-8.707.018c-.512,0-.85-.553-.594-.976l7.031-11.629c.307-.508,1.117-.318,1.204.283l1.676,11.611c.054.371-.229.693-.609.693Z"/>
    <path class="cls-4" d="M34.96,37.647H5.863c-.178,0-.333.123-.373.297l-1.275,5.522c-.055.24.127.469.373.469h29.096c.178,0,.333-.123.373-.297l1.275-5.522c.055-.24-.127-.469-.373-.469Z"/>
    <path class="cls-4" d="M37.504,26.63H8.408c-.178,0-.333.123-.373.297l-1.275,5.522c-.055.24.127.469.373.469h29.096c.178,0,.333-.123.373-.297l1.275-5.522c.055-.24-.127-.469-.373-.469Z"/>
    <path class="cls-4" d="M40.047,15.613H10.95c-.178,0-.333.123-.373.297l-1.275,5.522c-.055.24.127.469.373.469h29.096c.178,0,.333-.123.373-.297l1.275-5.522c.055-.24-.127-.469-.373-.469Z"/>
    <path class="cls-4" d="M42.588,4.603H13.492c-.178,0-.333.123-.373.297l-1.275,5.522c-.055.24.127.469.373.469h29.096c.178,0,.333-.123.373-.297l1.275-5.522c.055-.24-.127-.469-.373-.469Z"/>
  </g>
  <g id="white">
    <g>
      <path class="cls-2" d="M102.336,16.373l-7.031,11.629c-.256.423.082.977.594.976l8.707-.018c.381,0,.663-.322.609-.693l-1.676-11.611c-.087-.601-.896-.791-1.204-.283ZM102.702,26.701c-.089.103-.218.162-.354.163l-3.069.006h0c-.17,0-.326-.091-.409-.239-.084-.148-.081-.329.007-.475l2.479-4.1c.103-.17.303-.256.496-.218.194.04.344.197.372.394l.591,4.094c.019.135-.021.272-.11.375Z"/>
      <path class="cls-2" d="M72.391,15.653h-13.093c-.217,0-.402.14-.448.338l-3.671,15.945c-.126.547.301,1.079.867,1.079h10.691c4.845,0,7.816-2.016,9.456-3.708,2.017-2.081,3.185-4.899,3.125-7.539-.126-5.518-4.886-6.114-6.927-6.114ZM74.685,27.844c-1.358,1.401-3.84,3.07-7.948,3.07h-8.575c-.144,0-.278-.065-.368-.177-.089-.112-.122-.259-.09-.398l2.812-12.22c.049-.213.239-.365.458-.365h11.417c4.734,0,4.804,3.057,4.826,4.061.047,2.059-.924,4.369-2.532,6.029Z"/>
      <path class="cls-2" d="M175.23,16.373l-7.031,11.629c-.255.423.082.977.594.976l8.707-.018c.381,0,.663-.322.609-.693l-1.676-11.611c-.087-.601-.896-.791-1.204-.283ZM175.597,26.701c-.089.103-.218.162-.354.163l-3.07.006h0c-.17,0-.326-.091-.409-.239-.084-.148-.081-.33.007-.475l2.479-4.1c.103-.17.302-.256.496-.218.194.04.343.197.372.394l.591,4.094c.019.135-.021.272-.11.375Z"/>
      <path class="cls-2" d="M189.025,4.657c-.287-1.249-1.43-2.156-2.718-2.156l-3.9.008c-.206-.026-.343-.036-.479-.036l-61.711.128c-1.271.003-2.36.864-2.646,2.095l-.26,1.118c-.05.213-.239.364-.458.364h0c-.219,0-.408-.152-.457-.365l-.27-1.178c-.287-1.256-1.39-2.133-2.682-2.133l-15.428.032c-.892.001-1.726.438-2.232,1.167l-2.46,3.552c-.074.106-.188.178-.316.197-.129.018-.259-.015-.36-.095-1.618-1.268-3.598-2.3-5.884-3.07-3.163-1.066-7.32-1.6-12.707-1.632l-25.364-.152c-1.317,0-2.438.862-2.724,2.098l-8.775,38.01c-.184.795.01,1.627.529,2.284.552.697,1.421,1.117,2.325,1.122l25.169.15c3.153,0,6.772-.351,10.754-1.042,3.138-.54,6.246-1.653,9.24-3.31,1.147-.635,2.256-1.352,3.294-2.13.081-.061.18-.094.281-.094l15.407-.023h0c.234,0,.434.173.466.405l.516,3.692c.189,1.362,1.376,2.389,2.761,2.389l14.222-.029c.69-.001,1.351-.263,1.858-.736.185-.173.477-.167.655.013.526.534,1.229.828,1.979.828l13.569-.028c.683-.001,1.334-.251,1.832-.704.181-.164.456-.163.635.002.513.471,1.183.73,1.887.73l13.6-.028c.956-.002,1.85-.509,2.334-1.324l2.943-4.952c.085-.142.238-.229.403-.23l13.233-.027h0c.234,0,.434.173.466.405l.516,3.691c.189,1.362,1.376,2.389,2.76,2.389l14.257-.029c.835-.001,1.61-.375,2.126-1.023.514-.645.702-1.48.518-2.291l-8.705-38.053ZM122.153,43.924l-14.223.029c-.336,0-.629-.25-.674-.578l-.744-5.334c-.046-.328-.339-.579-.674-.578l-17.935.027c-1.135.915-2.37,1.745-3.709,2.486-2.801,1.55-5.66,2.575-8.579,3.077-3.991.693-7.539,1.029-10.647,1.01l-24.908-.149c-.507-.003-.915-.419-.819-.835L48.015,5.071c.065-.28.344-.471.685-.469l25.343.151c5.11.031,9.127.538,12.049,1.522s5.202,2.385,6.84,4.203c.137.152.262.308.39.464l4.189-6.047c.114-.164.303-.261.51-.262l15.428-.032c.3,0,.561.207.628.499l8.701,38.036c.092.402-.213.785-.625.786ZM124.397,39.154h0c-.219,0-.408-.152-.457-.365l-4.963-21.696c-.032-.14,0-.286.09-.397.089-.112.225-.177.367-.178l10.01-.021h0c.144,0,.278.065.368.177.089.112.122.26.09.399l-5.047,21.716c-.05.213-.239.364-.458.364ZM195.082,43.924l-14.257.029c-.336,0-.629-.25-.674-.578l-.744-5.334c-.046-.328-.339-.579-.674-.578l-15.985.033c-.222,0-.423.112-.532.296l-3.513,5.911c-.109.184-.31.296-.532.296l-13.601.028c-.529.001-.865-.587-.574-1.007l19.879-28.696-15.778.033c-.293,0-.54.193-.605.469l-6.67,28.703c-.064.277-.312.469-.605.469l-13.563.028c-.431,0-.764-.401-.67-.809l6.511-28.02c.095-.407-.238-.809-.67-.809l-13.498.028c-.431,0-.764-.401-.67-.809l1.961-8.439c.064-.277.312-.469.605-.469l61.711-.128c.074,0,.143.015.21.037l4.169-.009c.315,0,.595.22.664.524l8.705,38.053c.089.388-.198.743-.6.744ZM144.489,37.025l4.695-20.207c.05-.213.238-.363.457-.364l9.315-.019h0c.175,0,.335.097.416.251.082.155.07.343-.029.486l-14.011,20.226c-.091.13-.236.203-.387.203-.064,0-.129-.013-.19-.041-.206-.091-.318-.316-.268-.536Z"/>
    </g>
    <path class="cls-2" d="M44.401,3.545c-.442-.556-1.104-.875-1.812-.875H13.492c-1.083,0-2.011.738-2.257,1.795l-1.274,5.521c-.159.691.003,1.406.444,1.962.428.539,1.064.849,1.751.867h27.891c.021,0,.04.007.061.007h1.206c.927,0,1.736-.542,2.105-1.36l1.477-6.399c.019-.545-.148-1.081-.495-1.518ZM41.687,10.594c-.04.174-.195.297-.373.297H12.217c-.246,0-.428-.229-.373-.469l1.275-5.522c.04-.174.195-.297.373-.297h29.096c.246,0,.428.229.373.469l-1.275,5.522Z"/>
    <path class="cls-2" d="M37.267,38.108c.019-.546-.148-1.082-.496-1.52-.441-.555-1.102-.874-1.812-.874H5.864c-1.086,0-2.014.737-2.255,1.793l-1.276,5.522c-.159.691.003,1.407.445,1.962.441.555,1.102.874,1.812.874h29.096c1.085,0,2.013-.738,2.255-1.794l.288-1.247c.015-.143.016-.286.049-.428l.99-4.29ZM34.058,43.638c-.04.174-.195.297-.373.297H4.589c-.246,0-.428-.229-.373-.469l1.275-5.522c.04-.174.195-.297.373-.297h29.096c.246,0,.428.229.373.469l-1.275,5.522Z"/>
    <path class="cls-2" d="M39.316,25.571c-.441-.555-1.102-.874-1.812-.874H8.408c-1.082,0-2.01.738-2.256,1.795l-1.274,5.521c-.159.691.003,1.406.444,1.962.441.555,1.103.874,1.812.874h29.097c.925,0,1.733-.542,2.103-1.358l1.48-6.413c.016-.542-.152-1.073-.498-1.508ZM36.603,32.621c-.04.174-.195.297-.373.297H7.133c-.246,0-.428-.229-.373-.469l1.275-5.522c.04-.174.195-.297.373-.297h29.096c.246,0,.428.229.373.469l-1.275,5.522Z"/>
    <path class="cls-2" d="M41.858,14.554c-.428-.539-1.063-.849-1.75-.867H12.217c-.021,0-.04-.006-.061-.007h-1.206c-1.086,0-2.014.737-2.255,1.793l-1.276,5.522c-.159.691.003,1.407.445,1.962.441.555,1.102.874,1.812.874h29.096c.926,0,1.735-.542,2.105-1.36l1.477-6.398c.019-.546-.148-1.083-.496-1.52ZM39.145,21.604c-.04.174-.195.297-.373.297H9.676c-.246,0-.428-.229-.373-.469l1.275-5.522c.04-.174.195-.297.373-.297h29.096c.246,0,.428.229.373.469l-1.275,5.522Z"/>
  </g>
</svg>