<?xml version="1.0" encoding="UTF-8"?>
<svg id="outline" xmlns="http://www.w3.org/2000/svg" viewBox="0 0 199.598 48.675">
  <path d="M198.646,42.501h0s-8.705-38.054-8.705-38.054c-.383-1.672-1.911-2.886-3.635-2.886l-3.83.014c-.182-.027-.365-.042-.549-.042l-61.712.128c-1.484.003-2.783.878-3.353,2.192-.557-1.375-1.889-2.292-3.42-2.292l-15.429.032c-1.198.002-2.32.589-3.003,1.571l-2.181,3.149c-1.625-1.196-3.562-2.177-5.767-2.92-3.261-1.098-7.514-1.647-13.002-1.681l-25.367-.152c-1.429,0-2.673.772-3.301,1.95-.092-.175-.191-.347-.316-.505-.607-.763-1.515-1.201-2.489-1.201H13.492c-1.487,0-2.762,1.013-3.099,2.465l-1.274,5.522c-.22.949.002,1.931.608,2.694.13.164.28.305.436.437-1.134.287-2.039,1.17-2.311,2.356l-1.275,5.522c-.22.95.003,1.932.609,2.695.132.166.284.309.441.443-1.134.285-2.042,1.169-2.318,2.358l-1.274,5.522c-.22.949.003,1.931.609,2.695.131.165.283.308.44.441-1.138.285-2.047,1.17-2.319,2.358l-1.275,5.522c-.22.95.003,1.932.609,2.695.607.763,1.515,1.201,2.489,1.201h29.096c1.283,0,2.402-.754,2.902-1.889-.006-.013-.009-.027-.015-.039.021-.006.032,0,.015.039.112.22.239.435.397.634.728.919,1.871,1.472,3.058,1.479l25.172.15c3.21,0,6.883-.355,10.917-1.055,3.241-.557,6.449-1.706,9.535-3.413,1.14-.63,2.241-1.339,3.277-2.107l14.842-.022.459,3.287c.254,1.824,1.841,3.2,3.693,3.2l14.223-.029c.783-.002,1.537-.252,2.163-.712.658.529,1.471.817,2.329.817l13.57-.028c.778-.002,1.525-.245,2.145-.69.636.466,1.405.719,2.208.719l13.601-.028c1.285-.003,2.488-.687,3.141-1.784l2.807-4.723,12.557-.025.459,3.285c.254,1.824,1.841,3.2,3.692,3.2l14.258-.029c1.122-.002,2.165-.504,2.86-1.378.692-.87.946-1.995.697-3.085Z" style="fill: none; stroke: #b2b2b2; stroke-miterlimit: 10; stroke-width: .25px;"/>
</svg>