<?xml version="1.0" encoding="UTF-8"?>
<svg id="white" xmlns="http://www.w3.org/2000/svg" viewBox="0 0 199.598 48.675">
  <g>
    <path d="M102.336,16.373l-7.031,11.629c-.256.423.082.977.594.976l8.707-.018c.381,0,.663-.322.609-.693l-1.676-11.611c-.087-.601-.896-.791-1.204-.283ZM102.702,26.701c-.089.103-.218.162-.354.163l-3.069.006h0c-.17,0-.326-.091-.409-.239-.084-.148-.081-.329.007-.475l2.479-4.1c.103-.17.303-.256.496-.218.194.04.344.197.372.394l.591,4.094c.019.135-.021.272-.11.375Z" style="fill: #e61b18; stroke-width: 0px;"/>
    <path d="M72.391,15.653h-13.093c-.217,0-.402.14-.448.338l-3.671,15.945c-.126.547.301,1.079.867,1.079h10.691c4.845,0,7.816-2.016,9.456-3.708,2.017-2.081,3.185-4.899,3.125-7.539-.126-5.518-4.886-6.114-6.927-6.114ZM74.685,27.844c-1.358,1.401-3.84,3.07-7.948,3.07h-8.575c-.144,0-.278-.065-.368-.177-.089-.112-.122-.259-.09-.398l2.812-12.22c.049-.213.239-.365.458-.365h11.417c4.734,0,4.804,3.057,4.826,4.061.047,2.059-.924,4.369-2.532,6.029Z" style="fill: #e61b18; stroke-width: 0px;"/>
    <path d="M175.23,16.373l-7.031,11.629c-.255.423.082.977.594.976l8.707-.018c.381,0,.663-.322.609-.693l-1.676-11.611c-.087-.601-.896-.791-1.204-.283ZM175.597,26.701c-.089.103-.218.162-.354.163l-3.07.006h0c-.17,0-.326-.091-.409-.239-.084-.148-.081-.33.007-.475l2.479-4.1c.103-.17.302-.256.496-.218.194.04.343.197.372.394l.591,4.094c.019.135-.021.272-.11.375Z" style="fill: #e61b18; stroke-width: 0px;"/>
    <path d="M189.025,4.657c-.287-1.249-1.43-2.156-2.718-2.156l-3.9.008c-.206-.026-.343-.036-.479-.036l-61.711.128c-1.271.003-2.36.864-2.646,2.095l-.26,1.118c-.05.213-.239.364-.458.364h0c-.219,0-.408-.152-.457-.365l-.27-1.178c-.287-1.256-1.39-2.133-2.682-2.133l-15.428.032c-.892.001-1.726.438-2.232,1.167l-2.46,3.552c-.074.106-.188.178-.316.197-.129.018-.259-.015-.36-.095-1.618-1.268-3.598-2.3-5.884-3.07-3.163-1.066-7.32-1.6-12.707-1.632l-25.364-.152c-1.317,0-2.438.862-2.724,2.098l-8.775,38.01c-.184.795.01,1.627.529,2.284.552.697,1.421,1.117,2.325,1.122l25.169.15c3.153,0,6.772-.351,10.754-1.042,3.138-.54,6.246-1.653,9.24-3.31,1.147-.635,2.256-1.352,3.294-2.13.081-.061.18-.094.281-.094l15.407-.023h0c.234,0,.434.173.466.405l.516,3.692c.189,1.362,1.376,2.389,2.761,2.389l14.222-.029c.69-.001,1.351-.263,1.858-.736.185-.173.477-.167.655.013.526.534,1.229.828,1.979.828l13.569-.028c.683-.001,1.334-.251,1.832-.704.181-.164.456-.163.635.002.513.471,1.183.73,1.887.73l13.6-.028c.956-.002,1.85-.509,2.334-1.324l2.943-4.952c.085-.142.238-.229.403-.23l13.233-.027h0c.234,0,.434.173.466.405l.516,3.691c.189,1.362,1.376,2.389,2.76,2.389l14.257-.029c.835-.001,1.61-.375,2.126-1.023.514-.645.702-1.48.518-2.291l-8.705-38.053ZM122.153,43.924l-14.223.029c-.336,0-.629-.25-.674-.578l-.744-5.334c-.046-.328-.339-.579-.674-.578l-17.935.027c-1.135.915-2.37,1.745-3.709,2.486-2.801,1.55-5.66,2.575-8.579,3.077-3.991.693-7.539,1.029-10.647,1.01l-24.908-.149c-.507-.003-.915-.419-.819-.835L48.015,5.071c.065-.28.344-.471.685-.469l25.343.151c5.11.031,9.127.538,12.049,1.522s5.202,2.385,6.84,4.203c.137.152.262.308.39.464l4.189-6.047c.114-.164.303-.261.51-.262l15.428-.032c.3,0,.561.207.628.499l8.701,38.036c.092.402-.213.785-.625.786ZM124.397,39.154h0c-.219,0-.408-.152-.457-.365l-4.963-21.696c-.032-.14,0-.286.09-.397.089-.112.225-.177.367-.178l10.01-.021h0c.144,0,.278.065.368.177.089.112.122.26.09.399l-5.047,21.716c-.05.213-.239.364-.458.364ZM195.082,43.924l-14.257.029c-.336,0-.629-.25-.674-.578l-.744-5.334c-.046-.328-.339-.579-.674-.578l-15.985.033c-.222,0-.423.112-.532.296l-3.513,5.911c-.109.184-.31.296-.532.296l-13.601.028c-.529.001-.865-.587-.574-1.007l19.879-28.696-15.778.033c-.293,0-.54.193-.605.469l-6.67,28.703c-.064.277-.312.469-.605.469l-13.563.028c-.431,0-.764-.401-.67-.809l6.511-28.02c.095-.407-.238-.809-.67-.809l-13.498.028c-.431,0-.764-.401-.67-.809l1.961-8.439c.064-.277.312-.469.605-.469l61.711-.128c.074,0,.143.015.21.037l4.169-.009c.315,0,.595.22.664.524l8.705,38.053c.089.388-.198.743-.6.744ZM144.489,37.025l4.695-20.207c.05-.213.238-.363.457-.364l9.315-.019h0c.175,0,.335.097.416.251.082.155.07.343-.029.486l-14.011,20.226c-.091.13-.236.203-.387.203-.064,0-.129-.013-.19-.041-.206-.091-.318-.316-.268-.536Z" style="fill: #e61b18; stroke-width: 0px;"/>
  </g>
  <path d="M44.401,3.545c-.442-.556-1.104-.875-1.812-.875H13.492c-1.083,0-2.011.738-2.257,1.795l-1.274,5.521c-.159.691.003,1.406.444,1.962.428.539,1.064.849,1.751.867h27.891c.021,0,.04.007.061.007h1.206c.927,0,1.736-.542,2.105-1.36l1.477-6.399c.019-.545-.148-1.081-.495-1.518ZM41.687,10.594c-.04.174-.195.297-.373.297H12.217c-.246,0-.428-.229-.373-.469l1.275-5.522c.04-.174.195-.297.373-.297h29.096c.246,0,.428.229.373.469l-1.275,5.522Z" style="fill: #e61b18; stroke-width: 0px;"/>
  <path d="M37.267,38.108c.019-.546-.148-1.082-.496-1.52-.441-.555-1.102-.874-1.812-.874H5.864c-1.086,0-2.014.737-2.255,1.793l-1.276,5.522c-.159.691.003,1.407.445,1.962.441.555,1.102.874,1.812.874h29.096c1.085,0,2.013-.738,2.255-1.794l.288-1.247c.015-.143.016-.286.049-.428l.99-4.29ZM34.058,43.638c-.04.174-.195.297-.373.297H4.589c-.246,0-.428-.229-.373-.469l1.275-5.522c.04-.174.195-.297.373-.297h29.096c.246,0,.428.229.373.469l-1.275,5.522Z" style="fill: #e61b18; stroke-width: 0px;"/>
  <path d="M39.316,25.571c-.441-.555-1.102-.874-1.812-.874H8.408c-1.082,0-2.01.738-2.256,1.795l-1.274,5.521c-.159.691.003,1.406.444,1.962.441.555,1.103.874,1.812.874h29.097c.925,0,1.733-.542,2.103-1.358l1.48-6.413c.016-.542-.152-1.073-.498-1.508ZM36.603,32.621c-.04.174-.195.297-.373.297H7.133c-.246,0-.428-.229-.373-.469l1.275-5.522c.04-.174.195-.297.373-.297h29.096c.246,0,.428.229.373.469l-1.275,5.522Z" style="fill: #e61b18; stroke-width: 0px;"/>
  <path d="M41.858,14.554c-.428-.539-1.063-.849-1.75-.867H12.217c-.021,0-.04-.006-.061-.007h-1.206c-1.086,0-2.014.737-2.255,1.793l-1.276,5.522c-.159.691.003,1.407.445,1.962.441.555,1.102.874,1.812.874h29.096c.926,0,1.735-.542,2.105-1.36l1.477-6.398c.019-.546-.148-1.083-.496-1.52ZM39.145,21.604c-.04.174-.195.297-.373.297H9.676c-.246,0-.428-.229-.373-.469l1.275-5.522c.04-.174.195-.297.373-.297h29.096c.246,0,.428.229.373.469l-1.275,5.522Z" style="fill: #e61b18; stroke-width: 0px;"/>
</svg>